<svg xmlns="http://www.w3.org/2000/svg" width="71" height="71" viewBox="0 0 71 71" fill="none"><circle cx="35.5" cy="35.5" r="35.5" fill="#FFF8E4"></circle><path d="M48.9765 31.347C48.9765 29.9061 47.808 28.7373 46.3663 28.7368V27.968C46.3663 27.7753 46.2095 27.6185 46.0166 27.6185H39.2182V21.9604C39.2182 21.7671 39.0614 21.6104 38.8679 21.6104H38.1001C38.1001 20.1688 36.93 19 35.4883 19C34.0468 19 32.8779 20.1688 32.8779 21.6104H32.1111C31.9181 21.6104 31.7613 21.7671 31.7613 21.9604V27.6185H24.9616C24.7685 27.6185 24.6119 27.7753 24.6119 27.968V28.7368H24.6104C23.1691 28.7368 22 29.9054 22 31.347C22 32.7892 23.1691 33.9581 24.6104 33.9581H24.6119V34.7262C24.6119 34.9187 24.7685 35.0758 24.9616 35.0758H31.7613V52.039C31.7613 52.2322 31.9181 52.3893 32.1111 52.3893H32.8779C32.8779 53.8315 34.0468 55 35.4883 55C36.9299 55 38.1001 53.8314 38.1001 52.3893H38.8679C39.0614 52.3893 39.2182 52.2322 39.2182 52.039V35.0757H46.0166C46.2095 35.0757 46.3663 34.9186 46.3663 34.7261V33.958C47.8081 33.9573 48.9765 32.7885 48.9765 31.347Z" fill="#FFC11F"></path></svg>