<svg xmlns="http://www.w3.org/2000/svg" width="10" height="20" viewBox="0 0 10 20" fill=""><path d="M2.79297 20V11.3333H0V7.33333H2.79297V4.54167C2.79297 3.77778 2.89714 3.11111 3.10547 2.54167C3.32682 1.97222 3.6263 1.5 4.00391 1.125C4.39453 0.75 4.85677 0.472222 5.39062 0.291667C5.92448 0.0972222 6.51042 0 7.14844 0C7.7474 0 8.28776 0.0208333 8.76953 0.0625C9.2513 0.0902778 9.5638 0.118056 9.70703 0.145833V3.3125H7.94922C7.25911 3.3125 6.80339 3.47222 6.58203 3.79167C6.36068 4.11111 6.25 4.52778 6.25 5.04167V7.33333H10L8.75 11.3333H6.25V20H2.79297Z"></path></svg>