<svg xmlns="http://www.w3.org/2000/svg" width="19" height="19" viewBox="0 0 19 19" fill=""><path d="M9.5 1.70703C10.7741 1.70703 11.6029 1.71322 11.9863 1.72559C12.3822 1.72559 12.8337 1.73796 13.3408 1.7627C13.8851 1.78743 14.3984 1.87402 14.8809 2.02246C15.3757 2.15853 15.8148 2.41829 16.1982 2.80176C16.5817 3.18522 16.8415 3.62435 16.9775 4.11914C17.126 4.60156 17.2126 5.11491 17.2373 5.65918C17.262 6.16634 17.2744 6.61784 17.2744 7.01367C17.2868 7.39714 17.293 8.22591 17.293 9.5C17.293 10.7741 17.2868 11.609 17.2744 12.0049C17.2744 12.3883 17.262 12.8337 17.2373 13.3408C17.2126 13.8851 17.126 14.4046 16.9775 14.8994C16.8415 15.3818 16.5817 15.8148 16.1982 16.1982C15.8148 16.5817 15.3757 16.8477 14.8809 16.9961C14.3984 17.1322 13.8851 17.2126 13.3408 17.2373C12.8337 17.262 12.3822 17.2806 11.9863 17.293C11.6029 17.293 10.7741 17.293 9.5 17.293C8.22591 17.293 7.39095 17.293 6.99512 17.293C6.61165 17.2806 6.16634 17.262 5.65918 17.2373C5.11491 17.2126 4.59538 17.1322 4.10059 16.9961C3.61816 16.8477 3.18522 16.5817 2.80176 16.1982C2.41829 15.8148 2.15234 15.3818 2.00391 14.8994C1.86784 14.4046 1.78743 13.8851 1.7627 13.3408C1.73796 12.8337 1.7194 12.3883 1.70703 12.0049C1.70703 11.609 1.70703 10.7741 1.70703 9.5C1.70703 8.22591 1.70703 7.39714 1.70703 7.01367C1.7194 6.61784 1.73796 6.16634 1.7627 5.65918C1.78743 5.11491 1.86784 4.60156 2.00391 4.11914C2.15234 3.62435 2.41829 3.18522 2.80176 2.80176C3.18522 2.41829 3.61816 2.15853 4.10059 2.02246C4.59538 1.87402 5.11491 1.78743 5.65918 1.7627C6.16634 1.73796 6.61165 1.72559 6.99512 1.72559C7.39095 1.71322 8.22591 1.70703 9.5 1.70703ZM9.5 0C8.21354 0 7.36621 0.0061849 6.95801 0.0185547C6.5498 0.0185547 6.09212 0.0309245 5.58496 0.0556641C4.80566 0.0927734 4.08203 0.222656 3.41406 0.445312C2.74609 0.667969 2.13997 1.05143 1.5957 1.5957C1.05143 2.13997 0.667969 2.74609 0.445312 3.41406C0.222656 4.08203 0.0927734 4.80566 0.0556641 5.58496C0.0309245 6.09212 0.0123698 6.5498 0 6.95801C0 7.36621 0 8.21354 0 9.5C0 10.7865 0 11.6338 0 12.042C0.0123698 12.4502 0.0309245 12.9079 0.0556641 13.415C0.0927734 14.1943 0.222656 14.918 0.445312 15.5859C0.667969 16.2539 1.05143 16.86 1.5957 17.4043C2.13997 17.9486 2.74609 18.332 3.41406 18.5547C4.08203 18.7773 4.80566 18.9072 5.58496 18.9443C6.09212 18.9691 6.5498 18.9814 6.95801 18.9814C7.36621 18.9938 8.21354 19 9.5 19C10.7865 19 11.6338 18.9938 12.042 18.9814C12.4502 18.9814 12.9079 18.9691 13.415 18.9443C14.1943 18.9072 14.918 18.7773 15.5859 18.5547C16.2539 18.332 16.86 17.9486 17.4043 17.4043C17.9486 16.86 18.332 16.2539 18.5547 15.5859C18.7773 14.918 18.9072 14.1943 18.9443 13.415C18.9691 12.9079 18.9814 12.4502 18.9814 12.042C18.9938 11.6338 19 10.7865 19 9.5C19 8.21354 18.9938 7.36621 18.9814 6.95801C18.9814 6.5498 18.9691 6.09212 18.9443 5.58496C18.9072 4.80566 18.7773 4.08203 18.5547 3.41406C18.332 2.74609 17.9486 2.13997 17.4043 1.5957C16.86 1.05143 16.2539 0.667969 15.5859 0.445312C14.918 0.222656 14.1943 0.0927734 13.415 0.0556641C12.9079 0.0309245 12.4502 0.0185547 12.042 0.0185547C11.6338 0.0061849 10.7865 0 9.5 0ZM9.5 4.62012C8.83203 4.62012 8.20117 4.75 7.60742 5.00977C7.01367 5.25716 6.49414 5.60352 6.04883 6.04883C5.60352 6.49414 5.25098 7.01367 4.99121 7.60742C4.74382 8.20117 4.62012 8.83203 4.62012 9.5C4.62012 10.168 4.74382 10.7988 4.99121 11.3926C5.25098 11.9863 5.60352 12.5059 6.04883 12.9512C6.49414 13.3965 7.01367 13.749 7.60742 14.0088C8.20117 14.2562 8.83203 14.3799 9.5 14.3799C10.168 14.3799 10.7988 14.2562 11.3926 14.0088C11.9863 13.749 12.5059 13.3965 12.9512 12.9512C13.3965 12.5059 13.7428 11.9863 13.9902 11.3926C14.25 10.7988 14.3799 10.168 14.3799 9.5C14.3799 8.83203 14.25 8.20117 13.9902 7.60742C13.7428 7.01367 13.3965 6.49414 12.9512 6.04883C12.5059 5.60352 11.9863 5.25716 11.3926 5.00977C10.7988 4.75 10.168 4.62012 9.5 4.62012ZM9.5 12.6729C8.62175 12.6729 7.87337 12.3636 7.25488 11.7451C6.63639 11.1266 6.32715 10.3783 6.32715 9.5C6.32715 8.62175 6.63639 7.87337 7.25488 7.25488C7.87337 6.63639 8.62175 6.32715 9.5 6.32715C10.3783 6.32715 11.1266 6.63639 11.7451 7.25488C12.3636 7.87337 12.6729 8.62175 12.6729 9.5C12.6729 10.3783 12.3636 11.1266 11.7451 11.7451C11.1266 12.3636 10.3783 12.6729 9.5 12.6729ZM15.7158 4.43457C15.7158 4.74382 15.6045 5.00977 15.3818 5.23242C15.1592 5.45508 14.887 5.56641 14.5654 5.56641C14.2562 5.56641 13.9902 5.45508 13.7676 5.23242C13.5449 5.00977 13.4336 4.74382 13.4336 4.43457C13.4336 4.11296 13.5449 3.84082 13.7676 3.61816C13.9902 3.39551 14.2562 3.28418 14.5654 3.28418C14.887 3.28418 15.1592 3.39551 15.3818 3.61816C15.6045 3.84082 15.7158 4.11296 15.7158 4.43457Z"></path></svg>