<svg xmlns="http://www.w3.org/2000/svg" width="37" height="37" viewBox="0 0 37 37" fill="none"><path d="M18.5 0C25.6725 0 31.5078 5.8353 31.5078 13.0078C31.5078 15.4312 30.8365 17.7961 29.5661 19.8479L19.2404 36.4876C19.0426 36.8063 18.6942 37 18.3194 37C18.3165 37 18.3137 37 18.3108 37C17.9328 36.997 17.5836 36.7974 17.3894 36.473L7.32694 19.6721C6.12661 17.6637 5.49219 15.3593 5.49219 13.0078C5.49219 5.8353 11.3275 0 18.5 0ZM9.18742 18.5591L18.3358 33.8338L27.7235 18.7057C28.7809 16.9979 29.3543 15.0276 29.3543 13.0078C29.3543 7.03072 24.4771 2.15352 18.5 2.15352C12.5229 2.15352 7.65293 7.03072 7.65293 13.0078C7.65293 14.9677 8.18849 16.8876 9.18742 18.5591Z" fill="#FFC11F"></path><path d="M18.5 6.50391C22.0863 6.50391 25.0039 9.42156 25.0039 13.0078C25.0039 16.5712 22.1337 19.5117 18.5 19.5117C14.8215 19.5117 11.9961 16.532 11.9961 13.0078C11.9961 9.42156 14.9137 6.50391 18.5 6.50391ZM18.5 17.3582C20.9033 17.3582 22.8504 15.4046 22.8504 13.0078C22.8504 10.617 20.8908 8.65742 18.5 8.65742C16.1092 8.65742 14.1568 10.617 14.1568 13.0078C14.1568 15.3697 16.0586 17.3582 18.5 17.3582Z" fill="#FFC11F"></path></svg>