<svg xmlns="http://www.w3.org/2000/svg" width="33" height="33" viewBox="0 0 33 33" fill="none"><g clip-path="url(#clip0_317:462)"><path d="M29.2103 24.8978L24.3968 20.0843C23.3948 19.0824 21.7703 19.0813 20.7672 20.0843L19.3653 21.4861C16.1623 19.53 13.4712 16.839 11.5151 13.6359L13.0521 12.0989C14.0527 11.0982 14.0527 9.46988 13.0521 8.46918L8.23859 3.65569C7.23944 2.65667 5.61722 2.64739 4.60595 3.65872L1.58116 6.70703C0.133931 7.92223 -0.37512 9.91744 0.28488 11.8084C3.67163 21.5136 11.4877 29.3296 21.1928 32.7164C23.0188 33.3534 24.8939 32.877 26.086 31.6487C26.1033 31.6335 26.1201 31.6178 26.1365 31.6013L29.2103 28.5274C30.211 27.5268 30.211 25.8986 29.2103 24.8978ZM27.6769 26.9941L24.6727 29.9984C24.636 30.0288 24.6013 30.0619 24.5687 30.0973C23.9363 30.7847 22.9191 31.022 21.9074 30.6688C12.8209 27.4981 5.50326 20.1803 2.33243 11.0938C1.96936 10.0534 2.2313 8.97559 2.99977 8.34775C3.02897 8.3239 3.05694 8.29851 3.0835 8.27176L6.14238 5.18903C6.24377 5.08758 6.36229 5.07244 6.42385 5.07244C6.48546 5.07244 6.60386 5.08752 6.70531 5.18903L11.5187 10.0025C11.6739 10.1577 11.6739 10.4102 11.5187 10.5654L9.38901 12.6951C9.04477 13.0393 8.97213 13.5706 9.21125 13.9946C11.5224 18.0918 14.9095 21.479 19.0067 23.7899C19.4306 24.0291 19.9619 23.9564 20.3061 23.6122L22.3006 21.6177C22.4559 21.4625 22.708 21.4623 22.8635 21.6177L27.677 26.4312C27.8321 26.5864 27.8321 26.839 27.6769 26.9941Z" fill="#FFC11F"></path><path d="M17.3321 8.46484C16.7333 8.46484 16.2478 8.9503 16.2478 9.54914C16.2478 10.148 16.7332 10.6334 17.3321 10.6334C20.1091 10.6334 22.3684 12.8927 22.3684 15.6697C22.3684 16.2686 22.8539 16.754 23.4527 16.754C24.0515 16.754 24.537 16.2686 24.537 15.6697C24.537 11.697 21.3049 8.46484 17.3321 8.46484Z" fill="#FFC11F"></path><path d="M17.3321 4.20923C16.7333 4.20923 16.2478 4.69469 16.2478 5.29352C16.2478 5.89236 16.7332 6.37782 17.3321 6.37782C22.4557 6.37782 26.6241 10.5462 26.6241 15.6698C26.6241 16.2687 27.1096 16.7541 27.7084 16.7541C28.3073 16.7541 28.7927 16.2687 28.7927 15.6698C28.7927 9.35047 23.6515 4.20923 17.3321 4.20923Z" fill="#FFC11F"></path><path d="M28.411 4.59059C25.4516 1.63123 21.5168 0.00146484 17.3316 0.00146484C16.7328 0.00146484 16.2473 0.486926 16.2473 1.08576C16.2473 1.68459 16.7328 2.17005 17.3316 2.17005C24.7756 2.17005 30.8316 8.22607 30.8316 15.67C30.8316 16.2688 31.317 16.7542 31.9159 16.7542C32.5147 16.7542 33.0002 16.2688 33.0002 15.67C33.0001 11.4847 31.3703 7.55002 28.411 4.59059Z" fill="#FFC11F"></path></g><defs><clipPath id="clip0_317:462"><rect width="33" height="33" fill="white"></rect></clipPath></defs></svg>