<svg xmlns="http://www.w3.org/2000/svg" width="20" height="18" viewBox="0 0 20 18" fill=""><path d="M20 2.12019C19.6354 2.30769 19.2513 2.46635 18.8477 2.59615C18.457 2.71154 18.0534 2.79808 17.6367 2.85577C18.0664 2.56731 18.4375 2.20673 18.75 1.77404C19.0625 1.34135 19.2969 0.858173 19.4531 0.324519C19.0495 0.584135 18.6263 0.807692 18.1836 0.995192C17.7539 1.18269 17.3047 1.32692 16.8359 1.42788C16.4714 0.995192 16.0286 0.649038 15.5078 0.389423C14.987 0.129808 14.4336 0 13.8477 0C13.2747 0 12.7409 0.122596 12.2461 0.367788C11.7513 0.598558 11.3151 0.923077 10.9375 1.34135C10.5729 1.74519 10.2799 2.22115 10.0586 2.76923C9.85026 3.31731 9.74609 3.90865 9.74609 4.54327C9.74609 4.71635 9.7526 4.88942 9.76562 5.0625C9.79167 5.23558 9.81771 5.40865 9.84375 5.58173C8.9974 5.53846 8.17057 5.39423 7.36328 5.14904C6.56901 4.90385 5.8138 4.57933 5.09766 4.17548C4.38151 3.75721 3.71094 3.26683 3.08594 2.70433C2.46094 2.14183 1.89453 1.51442 1.38672 0.822115C1.21745 1.16827 1.08073 1.53606 0.976562 1.92548C0.885417 2.30048 0.839844 2.69712 0.839844 3.11538C0.839844 3.90865 1.0026 4.63702 1.32812 5.30048C1.66667 5.96394 2.10938 6.4976 2.65625 6.90144C2.31771 6.88702 1.99219 6.82933 1.67969 6.72837C1.36719 6.6274 1.07422 6.4976 0.800781 6.33894C0.800781 6.33894 0.800781 6.34615 0.800781 6.36058C0.800781 6.375 0.800781 6.38221 0.800781 6.38221C0.800781 7.49279 1.11328 8.46635 1.73828 9.30289C2.3763 10.125 3.16406 10.637 4.10156 10.8389C3.91927 10.8966 3.73698 10.9399 3.55469 10.9688C3.38542 10.9976 3.20312 11.012 3.00781 11.012C2.8776 11.012 2.7474 11.0048 2.61719 10.9904C2.48698 10.976 2.36328 10.9543 2.24609 10.9255C2.50651 11.8197 2.98177 12.5625 3.67188 13.1538C4.375 13.7452 5.17578 14.0553 6.07422 14.0841C5.37109 14.6899 4.58333 15.1659 3.71094 15.512C2.85156 15.8582 1.9401 16.0312 0.976562 16.0312C0.807292 16.0312 0.638021 16.024 0.46875 16.0096C0.3125 15.9952 0.15625 15.9808 0 15.9663C0.455729 16.2837 0.93099 16.5721 1.42578 16.8317C1.92057 17.0769 2.42839 17.2861 2.94922 17.4591C3.48307 17.6322 4.02995 17.7692 4.58984 17.8702C5.14974 17.9567 5.71615 18 6.28906 18C8.17708 18 9.84375 17.6106 11.2891 16.8317C12.7474 16.0385 13.9714 15.0216 14.9609 13.7812C15.9505 12.5409 16.6992 11.1562 17.207 9.6274C17.7148 8.08414 17.9688 6.5625 17.9688 5.0625C17.9688 4.97596 17.9622 4.88221 17.9492 4.78125C17.9492 4.68029 17.9492 4.57933 17.9492 4.47837C18.3529 4.16106 18.724 3.80769 19.0625 3.41827C19.4141 3.01442 19.7266 2.58173 20 2.12019Z"></path></svg>