<svg xmlns="http://www.w3.org/2000/svg" width="19" height="19" viewBox="0 0 19 19" fill=""><path d="M18.8145 5.56557C18.8145 5.56557 18.7588 5.31607 18.6475 4.81708C18.5361 4.31809 18.3382 3.92146 18.0537 3.62718C17.695 3.23055 17.3301 3.00025 16.959 2.93627C16.6003 2.85951 16.3281 2.80833 16.1426 2.78274C15.487 2.73156 14.7695 2.69318 13.9902 2.66759C13.2109 2.642 12.4873 2.62281 11.8193 2.61001C11.1637 2.59722 10.6133 2.59082 10.168 2.59082C9.72266 2.59082 9.5 2.59082 9.5 2.59082C9.5 2.59082 9.27734 2.59082 8.83203 2.59082C8.38672 2.59082 7.83008 2.59722 7.16211 2.61001C6.50651 2.62281 5.78906 2.642 5.00977 2.66759C4.23047 2.69318 3.51302 2.73156 2.85742 2.78274C2.67188 2.80833 2.39355 2.85951 2.02246 2.93627C1.66374 3.00025 1.30501 3.23055 0.946289 3.62718C0.661784 3.92146 0.463867 4.31809 0.352539 4.81708C0.241211 5.31607 0.185547 5.56557 0.185547 5.56557C0.185547 5.56557 0.154622 5.89823 0.0927734 6.56355C0.0309245 7.22887 0 7.95816 0 8.75143V10.2484C0 11.0417 0.0309245 11.771 0.0927734 12.4363C0.154622 13.0888 0.185547 13.4151 0.185547 13.4151C0.185547 13.4151 0.241211 13.671 0.352539 14.1827C0.463867 14.6817 0.661784 15.0784 0.946289 15.3726C1.30501 15.7693 1.68848 15.9996 2.09668 16.0636C2.51725 16.1275 2.83268 16.1787 3.04297 16.2171C3.42643 16.2555 3.97689 16.2875 4.69434 16.313C5.41178 16.3386 6.12305 16.3578 6.82812 16.3706C7.54557 16.3834 8.17025 16.3962 8.70215 16.409C9.23405 16.409 9.5 16.409 9.5 16.409C9.5 16.409 9.72266 16.409 10.168 16.409C10.6133 16.409 11.1637 16.4026 11.8193 16.3898C12.4873 16.377 13.2109 16.3578 13.9902 16.3322C14.7695 16.2939 15.487 16.2491 16.1426 16.1979C16.3281 16.1851 16.6003 16.1467 16.959 16.0827C17.3301 16.006 17.695 15.7693 18.0537 15.3726C18.3382 15.0784 18.5361 14.6817 18.6475 14.1827C18.7588 13.671 18.8145 13.4151 18.8145 13.4151C18.8145 13.4151 18.8454 13.0888 18.9072 12.4363C18.9691 11.771 19 11.0417 19 10.2484V8.75143C19 7.95816 18.9691 7.22887 18.9072 6.56355C18.8454 5.89823 18.8145 5.56557 18.8145 5.56557ZM7.5332 12.0524V6.52516L12.6729 9.2888L7.5332 12.0524Z"></path></svg>